{"title":"Las aka The Forest  (2009)","uid":11228824,"size":1446005694,"categoryP":"video","categoryS":"movies","magnet":"?xt=urn:btih:22060b687b9c5edc8b391f7e305479763c443e17&amp;dn=Las+aka+The+Forest++%282009%29&amp;tr=udp%3A%2F%2Ftracker.openbittorrent.com%3A80&amp;tr=udp%3A%2F%2Fopen.demonii.com%3A1337&amp;tr=udp%3A%2F%2Ftracker.coppersurfer.tk%3A6969&amp;tr=udp%3A%2F%2Fexodus.desync.com%3A6969","seeders":1,"leechers":0,"uploader":"cavallone","files":1,"time":1413493337,"description":"Plot: The Forest is a black and white experimental film. The action of the film takes place in two periods of time. An old man leads his son through a forest, and is simultaneously under his care confined to bed with a deadly illness.\n\nSpecs:\n\n\nGeneral\nUnique ID : 255008798636741759729207813053203359392 (0xBFD8E87BB5DFBCCB872E74B48D0426A0)\nComplete name : Las.AKA.The.Forest.2009.DVDRip.x264-HANDJOB.mkv\nFormat : Matroska\nFormat version : Version 4 / Version 2\nFile size : 1.35 GiB\nDuration : 1h 15mn\nOverall bit rate : 2 545 Kbps\nEncoded date : UTC 2014-07-22 10:02:15\nWriting application : mkvmerge v6.1.0 ('Old Devil') built on Mar 2 2013 14:32:37\nWriting library : libebml v1.3.0 + libmatroska v1.4.0\n\nVideo\nID : 1\nFormat : AVC\nFormat/Info : Advanced Video Codec\nFormat profile : &lt;a class=&quot;__cf_email__&quot; href=&quot;/cdn-cgi/l/email-protection&quot; data-cfemail=&quot;3c74555b547c700f120e&quot;&gt;[email&amp;#160;protected]&lt;/a&gt;&lt;script cf-hash='f9e31' type=&quot;text/javascript&quot;&gt;\n/* &lt;![CDATA[ */!function(){try{var t=&quot;currentScript&quot;in document?document.currentScript:function(){for(var t=document.getElementsByTagName(&quot;script&quot;),e=t.length;e--;)if(t[e].getAttribute(&quot;cf-hash&quot;))return t[e]}();if(t&amp;&amp;t.previousSibling){var e,r,n,i,c=t.previousSibling,a=c.getAttribute(&quot;data-cfemail&quot;);if(a){for(e=&quot;&quot;,r=parseInt(a.substr(0,2),16),n=2;a.length-n;n+=2)i=parseInt(a.substr(n,2),16)^r,e+=String.fromCharCode(i);e=document.createTextNode(e),c.parentNode.replaceChild(e,c)}}}catch(u){}}();/* ]]&gt; */&lt;/script&gt;\nFormat settings, CABAC : Yes\nFormat settings, ReFrames : 12 frames\nCodec ID : V_MPEG4/ISO/AVC\nDuration : 1h 15mn\nBit rate : 2 270 Kbps\nWidth : 716 pixels\nHeight : 572 pixels\nDisplay aspect ratio : 16:9\nFrame rate mode : Constant\nFrame rate : 25.000 fps\nColor space : YUV\nChroma subsampling : 4:2:0\nBit depth : 8 bits\nScan type : Progressive\nBits/(Pixel*Frame) : 0.222\nStream size : 1.20 GiB (89%)\nWriting library : x264 core 130 r2273 b3065e6\nEncoding settings : cabac=1 / ref=12 / deblock=1:-3:-3 / analyse=0x3:0x133 / me=umh / subme=11 / psy=1 / psy_rd=1.00:0.00 / mixed_ref=1 / me_range=32 / chroma_me=1 / trellis=2 / 8x8dct=1 / cqm=0 / deadzone=21,11 / fast_pskip=1 / chroma_qp_offset=-2 / threads=3 / lookahead_threads=1 / sliced_threads=0 / nr=0 / decimate=1 / interlaced=0 / bluray_compat=0 / constrained_intra=0 / bframes=8 / b_pyramid=2 / b_adapt=2 / b_bias=0 / direct=3 / weightb=1 / open_gop=0 / weightp=2 / keyint=250 / keyint_min=25 / scenecut=40 / intra_refresh=0 / rc_lookahead=60 / rc=crf / mbtree=1 / crf=20.0 / qcomp=0.70 / qpmin=0 / qpmax=69 / qpstep=4 / ip_ratio=1.40 / aq=1:1.00\nLanguage : Polish\nDefault : Yes\nForced : No\nColor primaries : BT.601 PAL\nTransfer characteristics : BT.709\nMatrix coefficients : BT.601\n\nAudio\nID : 2\nFormat : AC-3\nFormat/Info : Audio Coding 3\nMode extension : CM (complete main)\nFormat settings, Endianness : Big\nCodec ID : A_AC3\nDuration : 1h 15mn\nBit rate mode : Constant\nBit rate : 224 Kbps\nChannel(s) : 2 channels\nChannel positions : Front: L R\nSampling rate : 48.0 KHz\nBit depth : 16 bits\nCompression mode : Lossy\nStream size : 121 MiB (9%)\nLanguage : Polish\nDefault : Yes\nForced : No\n\nText #1\nID : 3\nFormat : UTF-8\nCodec ID : S_TEXT/UTF8\nCodec ID/Info : UTF-8 Plain Text\nLanguage : English\nDefault : Yes\nForced : No\n\nText #2\nID : 4\nFormat : UTF-8\nCodec ID : S_TEXT/UTF8\nCodec ID/Info : UTF-8 Plain Text\nLanguage : French\nDefault : No\nForced : No\n\nText #3\nID : 5\nFormat : UTF-8\nCodec ID : S_TEXT/UTF8\nCodec ID/Info : UTF-8 Plain Text\nLanguage : Italian\nDefault : No\nForced : No\n\nText #4\nID : 6\nFormat : UTF-8\nCodec ID : S_TEXT/UTF8\nCodec ID/Info : UTF-8 Plain Text\nLanguage : Portuguese\nDefault : No\nForced : No\n\nText #5\nID : 7\nFormat : UTF-8\nCodec ID : S_TEXT/UTF8\nCodec ID/Info : UTF-8 Plain Text\nLanguage : Spanish\nDefault : No\nForced : No\n\nText #6\nID : 8\nFormat : VobSub\nMuxing mode : zlib\nCodec ID : S_VOBSUB\nCodec ID/Info : The same subtitle format used on DVDs\nLanguage : Polish\nDefault : No\nForced : No\n\nMenu\n00:00:00.000 : en:Chapter 1\n00:06:00.080 : en:Chapter 2\n00:16:30.080 : en:Chapter 3\n00:25:00.080 : en:Chapter 4\n00:32:46.880 : en:Chapter 5\n00:40:10.880 : en:Chapter 6\n00:48:58.880 : en:Chapter 7\n00:57:34.280 : en:Chapter 8\n01:06:49.880 : en:Chapter 9","torrent":{"xt":"urn:btih:22060b687b9c5edc8b391f7e305479763c443e17","amp;dn":"Las+aka+The+Forest++%282009%29","amp;tr":["udp%3A%2F%2Ftracker.openbittorrent.com%3A80","udp%3A%2F%2Fopen.demonii.com%3A1337","udp%3A%2F%2Ftracker.coppersurfer.tk%3A6969","udp%3A%2F%2Fexodus.desync.com%3A6969"],"infoHash":"22060b687b9c5edc8b391f7e305479763c443e17","infoHashBuffer":{"type":"Buffer","data":[34,6,11,104,123,156,94,220,139,57,31,126,48,84,121,118,60,68,62,23]},"announce":[],"urlList":[]}}